M48
; DRILL file {KiCad 7.0.7} date Mon Sep 25 01:30:31 2023
; FORMAT={-:-/ absolute / inch / decimal}
; #@! TF.CreationDate,2023-09-25T01:30:31-05:00
; #@! TF.GenerationSoftware,Kicad,Pcbnew,7.0.7
; #@! TF.FileFunction,MixedPlating,1,2
FMAT,2
INCH
; #@! TA.AperFunction,Plated,PTH,ViaDrill
T1C0.0157
; #@! TA.AperFunction,Plated,PTH,ComponentDrill
T2C0.0276
; #@! TA.AperFunction,Plated,PTH,ComponentDrill
T3C0.0315
; #@! TA.AperFunction,Plated,PTH,ComponentDrill
T4C0.0354
; #@! TA.AperFunction,Plated,PTH,ComponentDrill
T5C0.0394
; #@! TA.AperFunction,NonPlated,NPTH,ComponentDrill
T6C0.1260
%
G90
G05
T1
X4.63Y-5.14
X4.89Y-4.4
X4.92Y-3.11
X4.96Y-3.15
X5.02Y-3.18
X5.05Y-2.74
X5.05Y-4.55
X5.05Y-4.7
X5.08Y-4.25
X5.15Y-2.9
X5.15Y-3.04
X5.18Y-2.84
X5.2Y-3.09
X5.26Y-4.0
X5.26Y-4.25
X6.05Y-2.95
X6.1Y-3.0
X6.15Y-3.1
X6.21Y-3.88
X6.74Y-5.16
X7.01Y-5.5
T2
X6.7Y-4.1
X6.7Y-4.3
T3
X4.45Y-3.05
X4.45Y-3.35
X4.45Y-3.49
X4.45Y-3.6869
X4.45Y-4.1
X4.45Y-4.4
X4.45Y-4.5031
X4.45Y-4.7
X4.45Y-4.85
X4.45Y-5.15
X4.93Y-2.48
X5.03Y-2.48
X5.13Y-2.48
X5.23Y-2.48
X5.33Y-2.48
X5.43Y-2.48
X5.55Y-5.45
X5.55Y-5.5287
X5.7Y-4.2
X5.7Y-4.5
X5.7Y-4.8
X5.7Y-5.1
X5.7Y-5.3
X5.75Y-2.65
X5.75Y-2.75
X5.75Y-2.85
X5.75Y-2.95
X5.75Y-3.05
X5.75Y-3.15
X5.75Y-3.25
X5.75Y-3.35
X5.75Y-3.45
X5.75Y-3.55
X5.75Y-3.65
X5.75Y-3.75
X5.75Y-3.85
X5.75Y-3.95
X6.0Y-4.2
X6.0Y-4.5
X6.0Y-4.8
X6.0Y-5.1
X6.0Y-5.3
X6.1Y-5.3
X6.1516Y-2.5
X6.25Y-4.2016
X6.25Y-4.3984
X6.3484Y-2.5
X6.35Y-2.65
X6.35Y-2.75
X6.35Y-2.85
X6.35Y-2.95
X6.35Y-3.05
X6.35Y-3.15
X6.35Y-3.25
X6.35Y-3.35
X6.35Y-3.45
X6.35Y-3.55
X6.35Y-3.65
X6.35Y-3.75
X6.35Y-3.85
X6.35Y-3.95
X6.4Y-5.3
X6.55Y-2.65
X6.55Y-2.75
X6.55Y-2.85
X6.55Y-2.95
X6.55Y-3.05
X6.55Y-3.15
X6.55Y-3.25
X6.55Y-3.35
X6.55Y-3.45
X6.55Y-3.55
X6.55Y-3.9
X6.55Y-4.0
X6.55Y-4.1
X6.55Y-4.2
X6.55Y-4.3
X6.55Y-4.4
X6.55Y-4.5
X6.5504Y-4.8496
X6.5504Y-4.9496
X6.5504Y-5.0496
X6.5504Y-5.1496
X6.5504Y-5.2496
X6.5504Y-5.3496
X6.5504Y-5.4496
X6.5504Y-5.5496
X6.6516Y-3.75
X6.6531Y-2.5
X6.6531Y-4.7
X6.8484Y-3.75
X6.85Y-2.5
X6.85Y-2.65
X6.85Y-2.75
X6.85Y-2.85
X6.85Y-2.95
X6.85Y-3.05
X6.85Y-3.15
X6.85Y-3.25
X6.85Y-3.35
X6.85Y-3.45
X6.85Y-3.55
X6.85Y-3.9
X6.85Y-4.0
X6.85Y-4.1
X6.85Y-4.2
X6.85Y-4.3
X6.85Y-4.4
X6.85Y-4.5
X6.85Y-4.7
X6.8504Y-4.8496
X6.8504Y-4.9496
X6.8504Y-5.0496
X6.8504Y-5.1496
X6.8504Y-5.2496
X6.8504Y-5.3496
X6.8504Y-5.4496
X6.8504Y-5.5496
X7.0Y-2.73
X7.0Y-2.83
X7.0Y-2.93
X7.0Y-3.03
X7.0Y-3.13
X7.0Y-3.23
X7.0Y-3.33
X7.0Y-3.43
X7.0Y-3.53
T4
X6.2Y-5.54
X6.3Y-5.54
X7.28Y-2.75
X7.28Y-2.85
X7.28Y-3.01
X7.28Y-3.11
X7.28Y-3.2702
X7.28Y-3.3702
X7.28Y-3.5302
X7.28Y-3.6302
X7.28Y-3.79
X7.28Y-3.89
X7.28Y-4.05
X7.28Y-4.15
X7.28Y-4.31
X7.28Y-4.41
X7.28Y-4.57
X7.28Y-4.67
T5
X4.45Y-3.84
X4.45Y-3.94
X4.75Y-3.0
X4.75Y-3.1
X4.75Y-3.2
X4.75Y-3.3
X4.75Y-3.4
X4.75Y-3.5
X4.75Y-3.6
X4.75Y-3.7
X4.75Y-3.8
X4.75Y-3.9
X4.75Y-4.0
X4.75Y-4.1
X4.75Y-4.2
X4.75Y-4.3
X4.75Y-4.4
X4.75Y-4.5
X4.75Y-4.6
X4.75Y-4.7
X4.75Y-4.8
X4.75Y-4.9
X5.0516Y-5.35
X5.0516Y-5.5665
X5.15Y-5.35
X5.15Y-5.5665
X5.2484Y-5.35
X5.2484Y-5.5665
X5.35Y-3.0
X5.35Y-3.1
X5.35Y-3.2
X5.35Y-3.3
X5.35Y-3.4
X5.35Y-3.5
X5.35Y-3.6
X5.35Y-3.7
X5.35Y-3.8
X5.35Y-3.9
X5.35Y-4.0
X5.35Y-4.1
X5.35Y-4.2
X5.35Y-4.3
X5.35Y-4.4
X5.35Y-4.5
X5.35Y-4.6
X5.35Y-4.7
X5.35Y-4.8
X5.35Y-4.9
X5.772Y-5.44
X5.772Y-5.6172
X6.028Y-5.44
X6.028Y-5.6172
X6.28Y-4.7
X6.28Y-4.8
X6.28Y-4.9
X7.09Y-4.97
X7.09Y-5.07
X7.09Y-5.17
X7.09Y-5.27
X7.09Y-5.37
X7.19Y-4.97
X7.19Y-5.07
X7.19Y-5.17
X7.19Y-5.27
X7.19Y-5.37
T6
X4.45Y-2.5
X7.35Y-2.5
X7.35Y-5.6
T5
G00X4.6Y-5.4106
M15
G01X4.6Y-5.4894
M16
G05
G00X4.6787Y-5.635
M15
G01X4.7575Y-5.635
M16
G05
G00X4.8362Y-5.4106
M15
G01X4.8362Y-5.4894
M16
G05
T0
M30
