%TF.GenerationSoftware,KiCad,Pcbnew,7.0.7*%
%TF.CreationDate,2023-09-25T01:30:26-05:00*%
%TF.ProjectId,z80-cmos-nmos-tester,7a38302d-636d-46f7-932d-6e6d6f732d74,rev?*%
%TF.SameCoordinates,Original*%
%TF.FileFunction,Soldermask,Top*%
%TF.FilePolarity,Negative*%
%FSLAX46Y46*%
G04 Gerber Fmt 4.6, Leading zero omitted, Abs format (unit mm)*
G04 Created by KiCad (PCBNEW 7.0.7) date 2023-09-25 01:30:26*
%MOMM*%
%LPD*%
G01*
G04 APERTURE LIST*
G04 Aperture macros list*
%AMRoundRect*
0 Rectangle with rounded corners*
0 $1 Rounding radius*
0 $2 $3 $4 $5 $6 $7 $8 $9 X,Y pos of 4 corners*
0 Add a 4 corners polygon primitive as box body*
4,1,4,$2,$3,$4,$5,$6,$7,$8,$9,$2,$3,0*
0 Add four circle primitives for the rounded corners*
1,1,$1+$1,$2,$3*
1,1,$1+$1,$4,$5*
1,1,$1+$1,$6,$7*
1,1,$1+$1,$8,$9*
0 Add four rect primitives between the rounded corners*
20,1,$1+$1,$2,$3,$4,$5,0*
20,1,$1+$1,$4,$5,$6,$7,0*
20,1,$1+$1,$6,$7,$8,$9,0*
20,1,$1+$1,$8,$9,$2,$3,0*%
G04 Aperture macros list end*
%ADD10C,1.400000*%
%ADD11O,1.400000X1.400000*%
%ADD12R,1.600000X1.600000*%
%ADD13O,1.600000X1.600000*%
%ADD14C,3.200000*%
%ADD15C,1.700000*%
%ADD16R,1.700000X1.700000*%
%ADD17C,1.600000*%
%ADD18O,2.400000X1.600000*%
%ADD19R,2.400000X1.600000*%
%ADD20R,2.000000X1.440000*%
%ADD21O,2.000000X1.440000*%
%ADD22C,1.800000*%
%ADD23O,1.700000X1.700000*%
%ADD24R,3.500000X3.500000*%
%ADD25RoundRect,0.750000X-0.750000X-1.000000X0.750000X-1.000000X0.750000X1.000000X-0.750000X1.000000X0*%
%ADD26RoundRect,0.875000X-0.875000X-0.875000X0.875000X-0.875000X0.875000X0.875000X-0.875000X0.875000X0*%
%ADD27R,1.800000X1.800000*%
G04 APERTURE END LIST*
D10*
%TO.C,R5*%
X170180000Y-104140000D03*
D11*
X170180000Y-109220000D03*
%TD*%
D12*
%TO.C,RN1*%
X125222000Y-62992000D03*
D13*
X127762000Y-62992000D03*
X130302000Y-62992000D03*
X132842000Y-62992000D03*
X135382000Y-62992000D03*
X137922000Y-62992000D03*
%TD*%
D14*
%TO.C,H3*%
X186690000Y-142240000D03*
%TD*%
%TO.C,H2*%
X186690000Y-63500000D03*
%TD*%
%TO.C,H1*%
X113030000Y-63500000D03*
%TD*%
D15*
%TO.C,SW1*%
X153110000Y-138176000D03*
D16*
X146610000Y-138176000D03*
D15*
X153110000Y-142676000D03*
X146610000Y-142676000D03*
%TD*%
D12*
%TO.C,C3*%
X140970000Y-138430000D03*
D17*
X140970000Y-140430000D03*
%TD*%
D12*
%TO.C,X2*%
X144780000Y-114300000D03*
D17*
X152400000Y-114300000D03*
X152400000Y-106680000D03*
X144780000Y-106680000D03*
%TD*%
D12*
%TO.C,X1*%
X144780000Y-129540000D03*
D17*
X152400000Y-129540000D03*
X152400000Y-121920000D03*
X144780000Y-121920000D03*
%TD*%
D18*
%TO.C,U5*%
X173990000Y-67310000D03*
X173990000Y-69850000D03*
X173990000Y-72390000D03*
X173990000Y-74930000D03*
X173990000Y-77470000D03*
X173990000Y-80010000D03*
X173990000Y-82550000D03*
X173990000Y-85090000D03*
X173990000Y-87630000D03*
X173990000Y-90170000D03*
X166370000Y-90170000D03*
X166370000Y-87630000D03*
X166370000Y-85090000D03*
X166370000Y-82550000D03*
X166370000Y-80010000D03*
X166370000Y-77470000D03*
X166370000Y-74930000D03*
X166370000Y-72390000D03*
X166370000Y-69850000D03*
D19*
X166370000Y-67310000D03*
%TD*%
%TO.C,U4*%
X146050000Y-67310000D03*
D18*
X146050000Y-69850000D03*
X146050000Y-72390000D03*
X146050000Y-74930000D03*
X146050000Y-77470000D03*
X146050000Y-80010000D03*
X146050000Y-82550000D03*
X146050000Y-85090000D03*
X146050000Y-87630000D03*
X146050000Y-90170000D03*
X146050000Y-92710000D03*
X146050000Y-95250000D03*
X146050000Y-97790000D03*
X146050000Y-100330000D03*
X161290000Y-100330000D03*
X161290000Y-97790000D03*
X161290000Y-95250000D03*
X161290000Y-92710000D03*
X161290000Y-90170000D03*
X161290000Y-87630000D03*
X161290000Y-85090000D03*
X161290000Y-82550000D03*
X161290000Y-80010000D03*
X161290000Y-77470000D03*
X161290000Y-74930000D03*
X161290000Y-72390000D03*
X161290000Y-69850000D03*
X161290000Y-67310000D03*
%TD*%
%TO.C,U3*%
X173990000Y-99060000D03*
X173990000Y-101600000D03*
X173990000Y-104140000D03*
X173990000Y-106680000D03*
X173990000Y-109220000D03*
X173990000Y-111760000D03*
X173990000Y-114300000D03*
X166370000Y-114300000D03*
X166370000Y-111760000D03*
X166370000Y-109220000D03*
X166370000Y-106680000D03*
X166370000Y-104140000D03*
X166370000Y-101600000D03*
D19*
X166370000Y-99060000D03*
%TD*%
%TO.C,U2*%
X166380000Y-123180000D03*
D18*
X166380000Y-125720000D03*
X166380000Y-128260000D03*
X166380000Y-130800000D03*
X166380000Y-133340000D03*
X166380000Y-135880000D03*
X166380000Y-138420000D03*
X166380000Y-140960000D03*
X174000000Y-140960000D03*
X174000000Y-138420000D03*
X174000000Y-135880000D03*
X174000000Y-133340000D03*
X174000000Y-130800000D03*
X174000000Y-128260000D03*
X174000000Y-125720000D03*
X174000000Y-123180000D03*
%TD*%
D20*
%TO.C,U1*%
X120650000Y-76200000D03*
D21*
X120650000Y-78740000D03*
X120650000Y-81280000D03*
X120650000Y-83820000D03*
X120650000Y-86360000D03*
X120650000Y-88900000D03*
X120650000Y-91440000D03*
X120650000Y-93980000D03*
X120650000Y-96520000D03*
X120650000Y-99060000D03*
X120650000Y-101600000D03*
X120650000Y-104140000D03*
X120650000Y-106680000D03*
X120650000Y-109220000D03*
X120650000Y-111760000D03*
X120650000Y-114300000D03*
X120650000Y-116840000D03*
X120650000Y-119380000D03*
X120650000Y-121920000D03*
X120650000Y-124460000D03*
X135890000Y-124460000D03*
X135890000Y-121920000D03*
X135890000Y-119380000D03*
X135890000Y-116840000D03*
X135890000Y-114300000D03*
X135890000Y-111760000D03*
X135890000Y-109220000D03*
X135890000Y-106680000D03*
X135890000Y-104140000D03*
X135890000Y-101600000D03*
X135890000Y-99060000D03*
X135890000Y-96520000D03*
X135890000Y-93980000D03*
X135890000Y-91440000D03*
X135890000Y-88900000D03*
X135890000Y-86360000D03*
X135890000Y-83820000D03*
X135890000Y-81280000D03*
X135890000Y-78740000D03*
X135890000Y-76200000D03*
%TD*%
D22*
%TO.C,SW2*%
X128310000Y-141390000D03*
X130810000Y-141390000D03*
X133310000Y-141390000D03*
X128310000Y-135890000D03*
X130810000Y-135890000D03*
X133310000Y-135890000D03*
%TD*%
D12*
%TO.C,RN2*%
X177800000Y-69342000D03*
D13*
X177800000Y-71882000D03*
X177800000Y-74422000D03*
X177800000Y-76962000D03*
X177800000Y-79502000D03*
X177800000Y-82042000D03*
X177800000Y-84582000D03*
X177800000Y-87122000D03*
X177800000Y-89662000D03*
%TD*%
D17*
%TO.C,R4*%
X154940000Y-134620000D03*
D13*
X162560000Y-134620000D03*
%TD*%
%TO.C,R3*%
X113030000Y-77470000D03*
D17*
X113030000Y-85090000D03*
%TD*%
%TO.C,R2*%
X113030000Y-111760000D03*
D13*
X113030000Y-104140000D03*
%TD*%
D17*
%TO.C,R1*%
X152400000Y-134620000D03*
D13*
X144780000Y-134620000D03*
%TD*%
D16*
%TO.C,JP2*%
X159512000Y-119380000D03*
D23*
X159512000Y-121920000D03*
X159512000Y-124460000D03*
%TD*%
%TO.C,JP1*%
X113030000Y-97536000D03*
D16*
X113030000Y-100076000D03*
%TD*%
%TO.C,J2*%
X182626000Y-136398000D03*
D23*
X180086000Y-136398000D03*
X182626000Y-133858000D03*
X180086000Y-133858000D03*
X182626000Y-131318000D03*
X180086000Y-131318000D03*
X182626000Y-128778000D03*
X180086000Y-128778000D03*
X182626000Y-126238000D03*
X180086000Y-126238000D03*
%TD*%
D24*
%TO.C,J1*%
X122840000Y-138430000D03*
D25*
X116840000Y-138430000D03*
D26*
X119840000Y-143130000D03*
%TD*%
D27*
%TO.C,D10*%
X184912000Y-118618000D03*
D22*
X184912000Y-116078000D03*
%TD*%
D27*
%TO.C,D9*%
X184912000Y-112014000D03*
D22*
X184912000Y-109474000D03*
%TD*%
D27*
%TO.C,D8*%
X184912000Y-105410000D03*
D22*
X184912000Y-102870000D03*
%TD*%
%TO.C,D7*%
X184912000Y-96266000D03*
D27*
X184912000Y-98806000D03*
%TD*%
%TO.C,D6*%
X184912000Y-92207000D03*
D22*
X184912000Y-89667000D03*
%TD*%
D27*
%TO.C,D5*%
X184912000Y-85603000D03*
D22*
X184912000Y-83063000D03*
%TD*%
D27*
%TO.C,D4*%
X184912000Y-78994000D03*
D22*
X184912000Y-76454000D03*
%TD*%
D27*
%TO.C,D3*%
X184912000Y-72390000D03*
D22*
X184912000Y-69850000D03*
%TD*%
D27*
%TO.C,D2*%
X160020000Y-140716000D03*
D22*
X157480000Y-140716000D03*
%TD*%
D12*
%TO.C,D1*%
X113030000Y-130810000D03*
D13*
X113030000Y-123190000D03*
%TD*%
D17*
%TO.C,C8*%
X173990000Y-119380000D03*
X168990000Y-119380000D03*
%TD*%
%TO.C,C7*%
X173950000Y-95250000D03*
X168950000Y-95250000D03*
%TD*%
%TO.C,C6*%
X173990000Y-63500000D03*
X168990000Y-63500000D03*
%TD*%
%TO.C,C5*%
X158750000Y-106720000D03*
X158750000Y-111720000D03*
%TD*%
%TO.C,C4*%
X161250000Y-63500000D03*
X156250000Y-63500000D03*
%TD*%
%TO.C,C2*%
X113030000Y-114380000D03*
X113030000Y-119380000D03*
%TD*%
%TO.C,C1*%
X113030000Y-93646000D03*
X113030000Y-88646000D03*
%TD*%
M02*
